HIERARCHY
ROOT Hips
{
	OFFSET 0.00 0.00 0.00
	CHANNELS 6 Xposition Yposition Zposition Zrotation Xrotation Yrotation
	JOINT Spine
	{
		OFFSET 0 13.7848 0.0644
		CHANNELS 3 Zrotation Xrotation Yrotation
		JOINT Spine1
		{
			OFFSET 0 12.0447 -0
			CHANNELS 3 Zrotation Xrotation Yrotation
			JOINT Spine2
			{
				OFFSET -0 17.8005 -0
				CHANNELS 3 Zrotation Xrotation Yrotation
				JOINT Neck
				{
					OFFSET 0 40.9166 -0
					CHANNELS 3 Zrotation Xrotation Yrotation
					JOINT Head
					{
						OFFSET -0 21.2887 0
						CHANNELS 3 Zrotation Xrotation Yrotation
						JOINT HeadTop_End
						{
							OFFSET 0 17.4474 0
							CHANNELS 3 Zrotation Xrotation Yrotation
						}
					}
				}
				JOINT LeftShoulder
				{
					OFFSET 17.3995 23.8766 -6.0721
					CHANNELS 3 Zrotation Xrotation Yrotation
					JOINT LeftArm
					{
						OFFSET -0 19.9201 -0
						CHANNELS 3 Zrotation Xrotation Yrotation
						JOINT LeftForeArm
						{
							OFFSET -0 49.2901 -0
							CHANNELS 3 Zrotation Xrotation Yrotation
							JOINT LeftHand
							{
								OFFSET 0 31.562 0
								CHANNELS 3 Zrotation Xrotation Yrotation
								JOINT LeftHandThumb1
								{
									OFFSET -7.9466 6.134 2.4863
									CHANNELS 3 Zrotation Xrotation Yrotation
									JOINT LeftHandThumb2
									{
										OFFSET -0.0255 -7.7944 -0.0327
										CHANNELS 3 Zrotation Xrotation Yrotation
										JOINT LeftHandThumb3
										{
											OFFSET -0.0205 -8.3869 0.0307
											CHANNELS 3 Zrotation Xrotation Yrotation
											JOINT LeftHandThumb4
											{
												OFFSET 0.0565 -7.2511 -0.013
												CHANNELS 3 Zrotation Xrotation Yrotation
											}
										}
									}
								}
								JOINT LeftHandPinky1
								{
									OFFSET 10.9531 18.9207 3.2871
									CHANNELS 3 Zrotation Xrotation Yrotation
									JOINT LeftHandPinky2
									{
										OFFSET -0.0034 -4.9187 0.0963
										CHANNELS 3 Zrotation Xrotation Yrotation
										JOINT LeftHandPinky3
										{
											OFFSET 0.0758 -5.2323 0.0358
											CHANNELS 3 Zrotation Xrotation Yrotation
											JOINT LeftHandPinky4
											{
												OFFSET -0.1312 -5.5702 0.001
												CHANNELS 3 Zrotation Xrotation Yrotation
											}
										}
									}
								}
								JOINT LeftHandRing1
								{
									OFFSET 6.2716 22.7261 1.7123
									CHANNELS 3 Zrotation Xrotation Yrotation
									JOINT LeftHandRing2
									{
										OFFSET -0.0452 -6.4083 0.0434
										CHANNELS 3 Zrotation Xrotation Yrotation
										JOINT LeftHandRing3
										{
											OFFSET -0.1152 -6.1487 -0.0756
											CHANNELS 3 Zrotation Xrotation Yrotation
											JOINT LeftHandRing4
											{
												OFFSET -0.2306 -6.141 -0.0323
												CHANNELS 3 Zrotation Xrotation Yrotation
											}
										}
									}
								}
								JOINT LeftHandMiddle1
								{
									OFFSET -0 23.374 -0
									CHANNELS 3 Zrotation Xrotation Yrotation
									JOINT LeftHandMiddle2
									{
										OFFSET -0.1878 -6.9921 -0.168
										CHANNELS 3 Zrotation Xrotation Yrotation
										JOINT LeftHandMiddle3
										{
											OFFSET -0.0477 -7.0158 0.0144
											CHANNELS 3 Zrotation Xrotation Yrotation
											JOINT LeftHandMiddle4
											{
												OFFSET -0.0402 -7.7215 -0.0133
												CHANNELS 3 Zrotation Xrotation Yrotation
											}
										}
									}
								}
								JOINT LeftHandIndex1
								{
									OFFSET -6.1355 21.3106 -1.073
									CHANNELS 3 Zrotation Xrotation Yrotation
									JOINT LeftHandIndex2
									{
										OFFSET 0.0766 -7.536 -0.0238
										CHANNELS 3 Zrotation Xrotation Yrotation
										JOINT LeftHandIndex3
										{
											OFFSET -0.0927 -7.5116 0.0451
											CHANNELS 3 Zrotation Xrotation Yrotation
											JOINT LeftHandIndex4
											{
												OFFSET -0.0002 -10.2123 -0.0339
												CHANNELS 3 Zrotation Xrotation Yrotation
											}
										}
									}
								}
							}
						}
					}
				}
				JOINT RightShoulder
				{
					OFFSET -17.3995 23.8766 -6.0721
					CHANNELS 3 Zrotation Xrotation Yrotation
					JOINT RightArm
					{
						OFFSET 0 19.9201 0
						CHANNELS 3 Zrotation Xrotation Yrotation
						JOINT RightForeArm
						{
							OFFSET 0 49.2901 0
							CHANNELS 3 Zrotation Xrotation Yrotation
							JOINT RightHand
							{
								OFFSET -0 31.562 0
								CHANNELS 3 Zrotation Xrotation Yrotation
								JOINT RightHandThumb1
								{
									OFFSET 7.9466 6.134 2.4863
									CHANNELS 3 Zrotation Xrotation Yrotation
									JOINT RightHandThumb2
									{
										OFFSET 0.0255 -7.7944 -0.0327
										CHANNELS 3 Zrotation Xrotation Yrotation
										JOINT RightHandThumb3
										{
											OFFSET 0.0205 -8.3869 0.0307
											CHANNELS 3 Zrotation Xrotation Yrotation
											JOINT RightHandThumb4
											{
												OFFSET -0.0565 -7.2511 -0.013
												CHANNELS 3 Zrotation Xrotation Yrotation
											}
										}
									}
								}
								JOINT RightHandIndex1
								{
									OFFSET 6.1355 21.3106 -1.073
									CHANNELS 3 Zrotation Xrotation Yrotation
									JOINT RightHandIndex2
									{
										OFFSET -0.0766 -7.536 -0.0238
										CHANNELS 3 Zrotation Xrotation Yrotation
										JOINT RightHandIndex3
										{
											OFFSET 0.0927 -7.5116 0.0451
											CHANNELS 3 Zrotation Xrotation Yrotation
											JOINT RightHandIndex4
											{
												OFFSET 0.0002 -10.2123 -0.0339
												CHANNELS 3 Zrotation Xrotation Yrotation
											}
										}
									}
								}
								JOINT RightHandMiddle1
								{
									OFFSET 0 23.374 -0
									CHANNELS 3 Zrotation Xrotation Yrotation
									JOINT RightHandMiddle2
									{
										OFFSET 0.1878 -6.9921 -0.168
										CHANNELS 3 Zrotation Xrotation Yrotation
										JOINT RightHandMiddle3
										{
											OFFSET 0.0477 -7.0158 0.0144
											CHANNELS 3 Zrotation Xrotation Yrotation
											JOINT RightHandMiddle4
											{
												OFFSET 0.0402 -7.7215 -0.0133
												CHANNELS 3 Zrotation Xrotation Yrotation
											}
										}
									}
								}
								JOINT RightHandRing1
								{
									OFFSET -6.2716 22.7261 1.7123
									CHANNELS 3 Zrotation Xrotation Yrotation
									JOINT RightHandRing2
									{
										OFFSET 0.0452 -6.4083 0.0434
										CHANNELS 3 Zrotation Xrotation Yrotation
										JOINT RightHandRing3
										{
											OFFSET 0.1152 -6.1487 -0.0756
											CHANNELS 3 Zrotation Xrotation Yrotation
											JOINT RightHandRing4
											{
												OFFSET 0.2306 -6.141 -0.0323
												CHANNELS 3 Zrotation Xrotation Yrotation
											}
										}
									}
								}
								JOINT RightHandPinky1
								{
									OFFSET -10.9531 18.9207 3.2871
									CHANNELS 3 Zrotation Xrotation Yrotation
									JOINT RightHandPinky2
									{
										OFFSET 0.0034 -4.9187 0.0963
										CHANNELS 3 Zrotation Xrotation Yrotation
										JOINT RightHandPinky3
										{
											OFFSET -0.0758 -5.2323 0.0358
											CHANNELS 3 Zrotation Xrotation Yrotation
											JOINT RightHandPinky4
											{
												OFFSET 0.1312 -5.5702 0.001
												CHANNELS 3 Zrotation Xrotation Yrotation
											}
										}
									}
								}
							}
						}
					}
				}
			}
		}
	}
	JOINT LeftUpLeg
	{
		OFFSET 19.8991 -7.8851 -3.4295
		CHANNELS 3 Zrotation Xrotation Yrotation
		JOINT LeftLeg
		{
			OFFSET -0 38.4457 -0
			CHANNELS 3 Zrotation Xrotation Yrotation
			JOINT LeftFoot
			{
				OFFSET -0.1321 32.8117 -0.1889
				CHANNELS 3 Zrotation Xrotation Yrotation
				JOINT LeftToeBase
				{
					OFFSET 0 24.02 0
					CHANNELS 3 Zrotation Xrotation Yrotation
					JOINT LeftToe_End
					{
						OFFSET -0 16.6166 -0
						CHANNELS 3 Zrotation Xrotation Yrotation
					}
				}
			}
		}
	}
	JOINT RightUpLeg
	{
		OFFSET -19.8991 -7.8851 -3.4295
		CHANNELS 3 Zrotation Xrotation Yrotation
		JOINT RightLeg
		{
			OFFSET 0 38.4457 -0
			CHANNELS 3 Zrotation Xrotation Yrotation
			JOINT RightFoot
			{
				OFFSET 0.1321 32.8117 -0.1889
				CHANNELS 3 Zrotation Xrotation Yrotation
				JOINT RightToeBase
				{
					OFFSET -0 24.02 0
					CHANNELS 3 Zrotation Xrotation Yrotation
					JOINT RightToe_End
					{
						OFFSET 0 16.6166 -0
						CHANNELS 3 Zrotation Xrotation Yrotation
					}
				}
			}
		}
	}
}
MOTION
Frames: 4
Frame Time: 0.0333333
6.371	79.1332	-5.1004	0.674367	11.4645	-19.6833	1.65865	4.33902	-0.65227	1.45712	6.89957	-1.28773	1.8275	23.1174	-1.28326	-4.51294	24.2305	2.36418	-10.3223	-44.5598	5.49608	-0	-55.7115	-0	-85.5641	-1.10084	13.8099	-69.9015	48.599	53.1813	81.2801	41.2357	-1.56683	6.81033	-15.7887	53.5848	-143.203	-2.73977	-131.433	9.48698	8.25752	-10.027	53.1133	-2.30686	27.0008	-8.6489	-1.81523	-33.3438	130.426	-19.6554	-175.623	5.21292	36.4391	-10.6029	20.6297	53.4028	-28.822	-0.569979	-8.19974	-4.84949	153.275	15.2664	-171.259	1.77844	57.8247	0.562435	2.53023	29.2055	-7.19513	-0	-6.0471	-0	-173.034	-3.78338	-177.421	-23.0785	63.4371	27.5027	-2.54089	15.7397	1.59949	0.291655	-5.22659	-2.24865	-140.854	-12.4314	-173.268	-4.03923	13.5222	6.38294	-26.7556	36.4897	30.3158	-2.39024	-0.645758	5.07582	81.9288	7.94828	-13.9215	77.8361	55.158	-51.7217	-86.9009	41.7922	4.96274	2.68727	12.68	-54.2851	118.72	14.841	146.937	-34.8744	-19.075	-5.48714	0.699554	14.8406	3.61649	8.6489	-1.81523	33.3438	167.972	7.00211	-167.686	18.4875	31.4159	-21.4696	5.54641	13.5977	-9.03735	2.39024	-0.645758	-5.07582	-177.136	8.46418	178.055	31.8485	67.9971	-35.7702	8.17154	41.9217	-6.38148	-0.291655	-5.22659	2.24865	-168.672	-13.5014	176.225	-3.01351	39.1671	-2.90941	-1.46116	-1.22084	0.550825	-0	-6.0471	-0	-151.867	-45.5467	-177.647	-24.2246	60.7528	35.4646	-11.6616	43.7963	18.0728	0.569979	-8.19974	4.84949	-126.489	44.3236	-50.1718	52.4201	-81.8808	43.3068	-53.7307	62.4238	40.0974	-2.91335	56.1976	3.56367	-0.214127	1.01299	0.205132	142.458	39.1691	40.0253	-33.9589	-80.8326	-25.334	60.9055	67.0487	-48.2063	3.06825	56.2909	-4.47035	0.214127	1.01299	-0.205132
6.5701	79.5849	-5.0829	0.772991	11.2653	-19.6802	1.52587	4.4691	-0.38467	1.35839	6.58334	-1.1677	1.69474	22.8005	-1.1555	-4.72688	24.3125	2.45746	-11.4709	-44.6337	6.66809	-0	-55.7115	-0	-85.4415	-0.648408	13.7722	-70.8337	48.0435	54.5071	79.079	39.9305	-1.46272	5.66497	-15.4418	51.9719	-143.408	-3.57724	-133.512	9.25444	8.2726	-9.27768	50.1946	-3.57147	25.1566	-8.6489	-1.81523	-33.3438	130.646	-20.137	-175.967	5.27727	36.6393	-10.7132	19.6221	52.6128	-27.6568	-0.569979	-8.19974	-4.84949	153.733	13.8897	-171.557	1.52221	58.1525	0.748224	2.31346	28.3796	-6.86982	-0	-6.0471	-0	-173.073	-5.00892	-177.467	-20.9595	62.0044	25.5122	-2.45683	15.3519	1.56993	0.291655	-5.22659	-2.24865	-141.321	-13.0565	-173.162	-4.06539	13.5699	6.40851	-25.2856	35.512	28.8399	-2.39024	-0.645758	5.07582	82.0571	8.25115	-13.8424	79.4398	53.8368	-53.7342	-83.8829	39.7623	4.32845	2.43079	12.8105	-52.6765	119.799	14.385	146.68	-33.1698	-18.0261	-4.53493	-0.0391288	14.9783	3.50575	8.6489	-1.81523	33.3438	167.832	5.92074	-168.197	17.4489	30.5011	-20.3918	5.05974	12.7807	-8.5396	2.39024	-0.645758	-5.07582	-177.276	7.02827	177.887	28.2574	66.4084	-32.2916	7.66466	40.3404	-5.913	-0.291655	-5.22659	2.24865	-168.513	-13.8253	176.42	-3.02971	39.165	-2.88029	-1.45621	-0.935447	0.611782	-0	-6.0471	-0	-150.786	-45.1902	-178.506	-22.6749	59.8112	33.6713	-11.1689	43.0877	17.4469	0.569979	-8.19974	4.84949	-129.046	44.6917	-48.4776	50.8535	-81.6115	41.3533	-53.6224	63.4913	41.4915	-2.73362	56.2415	3.33714	-0.214127	1.01299	0.205132	144.657	38.8103	38.8146	-32.3623	-80.3065	-23.0532	61.7012	68.249	-50.3983	3.11423	56.68	-3.75218	0.214127	1.01299	-0.205132
9.0949	81.4304	-3.1389	1.0193	10.5884	-19.6377	1.15216	4.84351	0.343928	1.06023	5.76429	-0.837636	1.29978	21.9798	-0.805986	-5.28581	24.54	2.69191	-14.4299	-44.9197	9.75207	-0	-55.7115	-0	-85.1248	0.564458	13.6648	-73.129	46.5456	57.741	73.3083	36.4782	-1.41645	2.46444	-14.2091	47.6048	-144.128	-5.66775	-139.105	8.6972	8.32631	-7.33837	42.0632	-6.45044	19.8515	-8.6489	-1.81523	-33.3438	131.295	-21.4323	-176.871	5.4513	37.1702	-11.009	17.0937	50.4003	-24.695	-0.569979	-8.19974	-4.84949	154.952	10.1652	-172.294	0.803403	59.0629	1.27318	1.76227	26.1595	-6.02231	-0	-6.0471	-0	-173.149	-8.36521	-177.575	-16.1616	57.9958	21.0663	-2.23471	14.3225	1.49621	0.291655	-5.22659	-2.24865	-142.562	-14.7337	-172.903	-4.13969	13.7049	6.48139	-21.5486	32.7214	25.0864	-2.39024	-0.645758	5.07582	82.4024	9.11176	-13.6355	83.3124	50.2353	-58.7293	-76.2828	34.0847	3.38986	1.7253	13.0281	-48.0731	122.711	13.2574	146.023	-28.7498	-14.9741	-2.08027	-2.05484	15.3908	3.19146	8.6489	-1.81523	33.3438	167.373	3.01299	-169.593	14.7853	27.9466	-17.6206	3.78904	10.5552	-7.23852	2.39024	-0.645758	-5.07582	-177.708	3.09793	177.404	20.6224	61.7768	-24.9642	6.43112	36.0614	-4.78591	-0.291655	-5.22659	2.24865	-168.1	-14.6809	176.944	-3.07065	39.1891	-2.79879	-1.44353	-0.136787	0.781602	-0	-6.0471	-0	-147.933	-44.2765	179.108	-18.9508	57.1413	29.2797	-9.90477	41.1346	15.8162	0.569979	-8.19974	4.84949	-135.72	44.5374	-43.3616	41.1273	-79.9061	32.8034	-52.1023	65.0073	41.784	-2.23841	56.4799	2.7438	-0.214127	1.01299	0.205132	149.542	37.2716	35.8296	-27.5461	-78.4331	-18.2645	62.2837	70.221	-52.9668	3.6415	56.8335	-4.13065	0.214127	1.01299	-0.205132
13.0837	83.8275	0.2621	1.3907	9.42326	-19.4896	0.517249	5.46407	1.52714	0.572421	4.46054	-0.30372	0.654301	20.6728	-0.247004	-6.15039	24.9184	3.0333	-18.8847	-45.6033	14.5119	-0	-55.7115	-0	-84.6376	2.5255	13.4756	-76.3891	43.9809	62.498	64.5202	31.1301	-2.06111	-2.61324	-11.5944	40.7473	-145.71	-8.57227	-148.089	7.94982	8.43746	-4.40517	28.3606	-9.2811	10.5421	-8.6489	-1.81523	-33.3438	132.457	-23.5115	-178.263	5.73311	37.9993	-11.4801	13.5679	46.6329	-20.4485	-0.569979	-8.19974	-4.84949	156.857	4.15743	-173.29	-0.440611	60.5764	2.19903	0.970193	22.6043	-4.74169	-0	-6.0471	-0	-173.204	-13.8632	-177.709	-10.4563	51.2533	15.9438	-1.88808	12.7034	1.393	0.291655	-5.22659	-2.24865	-144.523	-17.4046	-172.569	-4.26651	13.9336	6.60652	-16.202	27.8333	19.7124	-2.39024	-0.645758	5.07582	82.9129	10.5134	-13.3097	88.1965	44.0447	-65.4815	-65.2005	24.7164	3.79787	0.581375	13.2368	-40.4114	127.374	11.6515	145.06	-22.1579	-9.50523	1.44484	-5.34894	16.1498	2.65629	8.6489	-1.81523	33.3438	166.418	-1.6209	-171.904	10.9029	23.6098	-13.5583	1.86953	6.92193	-5.2678	2.39024	-0.645758	-5.07582	-178.549	-3.33336	176.522	12.4795	53.691	-17.3318	4.77044	29.1531	-3.30575	-0.291655	-5.22659	2.24865	-167.467	-16.0094	177.788	-3.1302	39.2957	-2.66085	-1.42654	1.20669	1.06524	-0	-6.0471	-0	-143.483	-42.9687	175.13	-14.16	52.5402	23.3844	-8.06825	37.8894	13.368	0.569979	-8.19974	4.84949	-146.707	43.7229	-35.267	32.7602	-77.112	25.5433	-48.8187	68.1592	42.9881	-1.43485	57.0498	2.042	-0.214127	1.01299	0.205132	157.294	34.0688	31.6134	-22.1925	-75.421	-12.4956	67.3523	74.127	-61.9434	4.63592	56.6903	-5.70049	0.214127	1.01299	-0.205132
